<?xml version="1.0" encoding="utf-8"?>
<!-- Generator: Adobe Illustrator 25.0.0, SVG Export Plug-In . SVG Version: 6.00 Build 0)  -->
<svg version="1.1" xmlns="http://www.w3.org/2000/svg" xmlns:xlink="http://www.w3.org/1999/xlink" x="0px" y="0px"
	 viewBox="0 0 1007 1042" style="enable-background:new 0 0 1007 1042;" xml:space="preserve">
<style type="text/css">
	.st0{fill:#190404;}
	.st1{fill:#680C1D;}
	.st2{fill:#E50B22;}
	.st3{display:none;}
	.st4{display:inline;fill:#E50B22;}
	.st5{display:inline;fill:#FF5576;}
	.st6{display:inline;fill:#680C1D;}
	.st7{fill:#FF5576;}
	.st8{display:inline;}
</style>
<g id="Correção">
	<polygon class="st0" points="349.3,273.6 446.6,205.4 455.7,155.4 377.5,160.8 342,192.7 328.3,246.4 	"/>
	<path class="st1" d="M309.2,325.5l131.9-104.6l68.2-13.6l5.5,0.9c0,0,2.7,24.6-31.8,34.6s-67.3,43.7-68.2,44.6
		c-0.9,0.9-81.9,53.7-81.9,53.7L309.2,325.5z"/>
	<path class="st2" d="M502.1,145.3c-0.2,0.4-0.6,0.6-0.9,0.9c-0.4,0.4-0.6,0.8-1,1.2c-0.8,0.7-1.5,1.6-2.2,2.4c-0.9,1-1.9,2-2.8,3.1
		c-1.1,1.2-2.2,2.4-3.3,3.6c-1.2,1.3-2.5,2.7-3.7,4c-1.3,1.4-2.6,2.9-3.9,4.3c-1.4,1.5-2.7,3-4.1,4.4c-1.4,1.5-2.7,3-4.1,4.4
		c-1.3,1.4-2.6,2.9-3.9,4.3c-1.2,1.3-2.4,2.7-3.7,4c-1.1,1.2-2.2,2.4-3.3,3.6c-0.9,1-1.9,2-2.8,3c-0.7,0.8-1.4,1.6-2.1,2.3
		c-0.5,0.5-0.9,1-1.4,1.5c-0.2,0.2-0.3,0.4-0.5,0.5c-1.6,1.9-1.6,4.7,0.1,6.5c5.6,6,18,18.1,26.2,16.7c9.1-1.5,19.2-6.6,22.3-8.3
		c0.6-0.3,1.3-0.5,2.1-0.6c2.7-0.1,4.7-2.4,4.6-5c0-0.4,0-0.9,0-1.3c-0.1-2.4-0.1-4.7-0.2-7.1c-0.1-3.7-0.2-7.4-0.3-11.1
		c-0.1-4.2-0.2-8.4-0.4-12.6c-0.1-3.9-0.2-7.7-0.3-11.6c0-1.5-0.1-3.1-0.1-4.6c-0.1-2.3,0-4.6-0.9-6.8c-0.6-1.5-1.6-2.9-2.5-4.2
		c-1.1-1.4-2.2-2.8-3.5-3.9c-1.3-1.2-2.9-2.1-4.6-2.5c0.8,1,0.2,2,0.3,3.2c0.2,1.3,1,3.3,0.9,4.5
		C502.1,144.9,502.3,144.9,502.1,145.3C502.1,145.3,502.1,145.3,502.1,145.3z"/>
	<path class="st1" d="M500.3,119l-3.6-1.8c0,0-17.3,14.6-18.2,18.2c-0.9,3.6,4.5,16.4,9.1,16.4c2.6,0,5.1-0.5,7.6-1.2
		c2-0.6,4.8-1.4,5.9-3.3c0.5-0.8,0.7-1.7,0.9-2.6c0.4-2.5,0.2-5.1-0.6-7.5c0,0,1.2-1.4,1.3-1.6c0.4-0.6,0.6-1.3,0.8-2
		c0.1-0.5,0.3-1.2,0.3-1.7c-0.1-0.3-0.2-0.7-0.3-1c-0.5-1.8-1-3.6-1.5-5.5C501.5,123.2,500.9,121.1,500.3,119z"/>
	<path class="st1" d="M456.1,333.2c0.1,0.1,0.2,0.1,0.4,0.2c0.3,0.1,0.6,0.1,0.9,0c4.1-0.3,8.2-1.3,12.1-2.9c1.7-0.7,3.2-1.8,5-2.2
		c1-0.3,2-0.6,3-0.8c4.5-1.3,8.9-2.6,13.4-3.8c5.1-1.5,10.2-2.9,15.3-4.4c5.5-1.6,11-3.2,16.6-4.7c5.7-1.6,11.4-3.3,17.1-4.9
		c5.6-1.6,11.3-3.2,16.9-4.8c5.3-1.5,10.7-3,16-4.6c4.8-1.4,9.6-2.7,14.4-4.1c4-1.2,8.1-2.3,12.1-3.5c3-0.9,6.1-1.7,9.1-2.6
		c1.8-0.5,3.6-1,5.4-1.5c0.4-0.1,0.8-0.2,1.2-0.3c-2.5-1.5-5-3.1-7.6-4.6c-5.9-3.6-11.7-7.2-17.6-10.8c-6-3.7-12-7.4-18-11
		c-2-1.3-4.1-2.5-6.1-3.8c-0.6-0.4-1.2-0.8-1.8-1.1c-1.4-0.9-2.2-0.3-3.7,0.2c-1.6,0.6-3.2,1.2-4.8,1.8c-1.8,0.7-3.7,1.4-5.7,1.3
		c-1-0.1-2-0.3-3-0.3c-1.7,0-3.2,1.5-4.7,2.4c-1.2,0.7-2.5,1.5-3.7,2.2c-5.2,3.1-10.3,6.2-15.5,9.3c-6.5,3.9-12.9,7.8-19.4,11.6
		c-6.4,3.8-12.7,7.6-19.1,11.4c-4.8,2.9-9.7,5.8-14.5,8.7c-1.9,1.2-3.9,2.3-5.8,3.5c-1.1,3.4-2.2,6.7-3.4,10.1
		c-0.9,2.6-1.7,5.2-2.6,7.8c-0.4,1.1-0.7,2.2-1.1,3.2c-0.1,0.4-0.3,0.9-0.4,1.3C456.2,332.1,455.6,332.8,456.1,333.2z"/>
	<path class="st0" d="M552.8,260.5l9.4,0.5l-19.1-20l-47.3-4.5l-3.6,2.7l20,7.3l37.4,13.5C550.6,260.2,551.7,260.4,552.8,260.5z"/>
</g>
<g id="PALETA" class="st3">
	<rect x="50" y="35" class="st4" width="112" height="101"/>
	<rect x="50" y="167" class="st5" width="112" height="101"/>
	<rect x="51" y="304" class="st6" width="112" height="101"/>
</g>
<g id="Pintura">
	<path class="st0" d="M323.3,274.8c-0.2-0.1-0.5-0.2-0.8-0.2c-1.1,0-2.8,0.8-4.6,2.3c-2.7,2.3-5.6,5.8-7.9,9.9
		c-2.4,4.1-4,8.3-4.6,11.8c-0.5,3-0.1,5.2,0.9,5.8c1,0.6,3.1-0.2,5.4-2.1c2.7-2.3,5.6-5.8,7.9-9.9c2.4-4.1,4-8.3,4.6-11.8
		C324.7,277.6,324.4,275.4,323.3,274.8z"/>
	<path class="st2" d="M521.1,62.2c0.6-0.5,1.3-1,1.9-1.6c8.6-7.3,14.7-17.5,17.2-28.5c2.2-10.1,1.4-20.8-2.3-30.4
		c-1.8,8.7-3.7,17.5-7.5,25.7c-4.7,10.2-11.8,17.9-20.1,21.7c-3.7,1.7-7.6,2.7-11.5,3.6c-2.8,0.7-5.6,1.4-8.3,2.4
		c-13.1,4.7-23.6,16.5-26.7,30.1c-0.1,0.6-0.2,1.1-0.4,1.7c-0.4,2.2-0.9,4.4-2,6.5c-1.4,2.6-4.2,5-7.5,4.7c-3.2-0.3-5.9-3.3-7.3-8
		c-2.6-8.9-1.7-18.7,2.5-26.9c3.5-7.1,9.4-12.9,16.5-16.5c-0.6,0-1.2,0-1.8,0.1c-14.7,1.2-26.5,12.6-31.2,18
		c-2.2,2.5-4.3,5.3-6.3,8.3c-4.3,6.8-8,14.9-11.1,24.8c0,0,0,0,0,0.1c-0.4,1.3-0.8,2.7-1.2,4.1c0.8,3.2,1.1,6.5,0.9,9.8
		c-0.3,5.3-1.8,10.6-4.5,15.2c-4.5,7.8-12,13.5-20.7,15.8c-0.7,0.2-1.5,0.4-2.3,0.5c-0.1,0-0.2,0-0.3,0c-1.3,0.2-2.6,0.3-3.9,0.3
		c-0.3,0-0.5,0-0.8,0c-2.1-0.1-4.3-0.4-6.3-1.1c-3.2-1.1-6-3-7.8-6.1c-0.1-0.2-0.2-0.3-0.3-0.5c-0.5-0.9-0.9-1.9-1.1-2.8
		c-0.8-2.7-0.7-5.5-0.2-8.4c0.3-1.6,0.7-3.3,1.3-4.9c0.8-2.5,1.8-4.9,2.8-7.2c0.5-1.2,1-2.4,1.5-3.6c1.7-4.3,3.6-8.9,6.3-13.1
		c2.1-3.3,3.9-5.9,4.8-7.2c1.3-1.9,1.9-2.7,2.3-3c3.6-13.1,12-24.8,23.5-32c-8.4,0.1-16.7,4.8-21,12l-1.2,2.1l-7.7-43.4l-0.1-0.8
		c0-0.1,0-0.1,0-0.1c-0.1,0.8-0.2,1.5-0.3,2.3c-1.9,12.1-7.7,23.6-16.4,32.1c-3,3-6.5,5.7-9.8,8.2c-5,3.9-10.1,7.9-13.9,13
		c-5.6,7.5-8.6,17.5-9.1,30.7c-0.2,5.2,0,10.5,0.1,15.7c0.2,5.7,0.4,11.6,0,17.4c-0.1,2.5-0.4,5.4-1.8,7.8c-1.3,2.3-4.1,4.4-7.3,3.7
		c-2.4-0.5-4.4-2.6-5.8-6.1c-2.8-7.1-2.9-15.2-0.5-22.4c-9.9,10.1-16.6,23.5-18.6,37.5c-1,6.8-0.8,13.2,0.5,19.1
		c0.2,0.8,0.4,1.7,0.6,2.5c0.7,2.8,1.4,5.6,1.3,8.5c-0.2,3.8-2.3,8.3-6.5,9.3c-2.5,0.6-6-1.3-8.2-3.7c0.4,6.8,2.1,18.1,9.1,23.4
		c5.5,4.1,14.3,16.4,14.4,31.8c0.1,12.6-6,24-17.7,33c-5.1,3.9-7.5,10.3-6.1,16.2c0.8,3.3,2.5,5.7,5.1,7.2c3.1,1.8,5.2,4.8,5.8,8.2
		c0.1,0.5,0.1,1.1,0.1,1.6c0,0.5,0,1,0,1.5c0,0.1,0,0.1,0,0.2c0,0.3,0,0.6,0.1,0.9c0,0.5,0.1,1,0.2,1.4c0,0.3,0.1,0.6,0.1,0.8
		c0.1,0.5,0.2,1,0.4,1.5c0.5,1.5,1.3,2.8,2.4,3.5c1.8,1.1,4.6,0.6,8.2-1.4c3-1.7,6.4-2.4,9.6-2c12.1,1.4,42.5,0.9,62-34.3
		c1.6-2.9,4.5-5.1,7.7-5.8c4.6-1.1,9.2-2.3,13.7-3.6c2.4-0.7,4.8-1.3,7.2-2c2.9-0.7,5.8-1.5,8.7-2.4c8.4-2.6,15.8-8,20.7-15.1
		c-2.6,0.9-5.2,1.8-8,2c-4.3,0.4-8.2-0.6-10.9-2.8c-3.3-2.7-4.4-7.4-2.7-10.8c1.1-2.2,3.2-3.8,6-4.7c2.5-0.8,5.1-0.9,7.3-1
		c5.7-0.2,11.5-0.3,17.2-0.3c2.2,0,4.3,0.3,6.4,0.5c2.5,0.3,4.8,0.6,7.1,0.5c11.1-0.5,21.4-3.1,29.9-7.6c0.3-0.2,0.8-0.4,1.2-0.7
		c0,0,0.1,0,0.1-0.1c0.3-0.2,0.6-0.3,0.9-0.5c0.1,0,0.1-0.1,0.2-0.1c0.3-0.2,0.7-0.4,1-0.6c0.9-0.5,1.8-1.1,2.6-1.7
		c0.3-0.2,0.6-0.4,0.9-0.7c0.2-0.1,0.3-0.2,0.5-0.3c4.5-3.3,9.4-7.9,11.2-13.3c0.1-0.2,0.1-0.5,0.2-0.7c0,0,0-0.1,0-0.1
		c0.1-0.2,0.1-0.5,0.2-0.7c0.3-1.2,0.5-2.3,0.7-3.5c0.5-2.8,0.7-5.7,0.6-8.5c0-0.2,0-0.3,0-0.5c-0.2-4.8-1.1-9.6-2.7-14.1
		c-0.6,3.8-2.8,7.4-5.6,9.6c-4,3.2-9.6,4.8-16.6,4.9h-0.1c-5.6,0-9.6-1.3-12.2-3.9c-4.6-4.6-3.7-12.3-0.9-17.5
		c3.3-6.1,8.6-10.5,14.7-15.2l0.3-0.2c5.3-4.1,10.8-8.4,14.3-14.1c2.3-3.8,3.7-9.1,2.8-13.8c0-0.1,0-0.1,0-0.1
		c-0.9,2.5-2.8,4.8-4.8,5.6c-3.7,1.4-8.4-0.4-10.6-4.1c-1.9-3.1-2.1-7.4-0.7-11.5c1.4-3.8,4.1-7.1,6.3-9.4c4.3-4.6,9-8,14-11.6
		c1.2-0.8,2.3-1.7,3.5-2.5c2.3-1.7,4.9-3,7.4-4.2c3.4-1.7,6.6-3.2,9.2-5.8c4.3-4.1,6.6-9.8,6.3-15c-0.3-4.8-3-9.3-6.8-11.7
		c1.2,3.4,1.1,7.2-0.3,10.5l-0.1,0.3l-0.3,0.1c-0.2,0.1-0.4,0.2-0.6,0.2c-1,0.3-2,0.4-3.1,0.4c-1.5-0.1-3.1-0.6-4.5-1.4
		c-2.6-1.6-4.3-4.2-4.5-6.9c-0.2-3,1-6.2,3.5-9.1C517.6,65.1,519.4,63.6,521.1,62.2z M323.2,283.5c-0.4,2.7-1.7,5.9-3.5,8.9
		c-1.8,3.1-3.9,5.7-6,7.5c-1.6,1.3-3.1,2-4.4,2c-0.5,0-1-0.1-1.5-0.4c-1.5-0.8-2-3-1.5-5.9c0.4-2.7,1.7-5.8,3.4-8.9
		c1.8-3.1,3.9-5.7,6-7.5c2.3-1.9,4.4-2.5,5.9-1.6C323.2,278.4,323.7,280.5,323.2,283.5z M449.5,171.1c-7.7-0.4-15.7,4.2-21.4,12.2
		c-4,5.6-6.6,12.1-9.1,18.4c-0.7,1.8-1.4,3.6-2.2,5.4c-3.6,8.4-8,15-14.3,21.2c-2.8,2.7-5.5,3.4-9,4.4l-15.8,4.2
		c-5.9,1.6-12.5,3.4-17.6,7.3c-6.7,5.3-10.1,14.4-8.5,22.7l-1.8,0.3c-0.1-0.6-0.8-1.5-1.3-2.2c-0.4-0.6-0.8-1.1-1.1-1.6
		c-0.9-1.7-1.7-3.6-2.3-5.5c-1.5-4.5-2.1-8.2-1.8-11.3c0.1-1.1,0.3-2.3,0.6-3.4c1.5-6.1,5.2-11.5,8.6-16.2l1.1-1.5
		c3.2-4.3,6.4-8.7,8.3-13.6c1.2-3.1,1.8-6.4,2.5-9.6c0.6-3.2,1.3-6.5,2.5-9.7c3.5-9.3,11.6-16.8,21.2-19.4l5-1.4l-4.3,3
		c-5,3.5-7,10.7-4.7,16.4c16.4-17.5,42-26.1,65.6-22L449.5,171.1z"/>
	<path class="st2" d="M722.6,375.1c-0.3,1.6-0.6,3.1-0.9,4.7c-8.2-21.6-27.8-38.2-50.6-42.6c-7.1-1.4-17.4-2-25.8,3
		c-6.6,3.9-11.8,11.1-14.5,20.3c-4,13.6-2,28.4,5.5,39.6c7.9,11.8,21.8,18.8,35.3,17.9c11.5-0.8,23-8.3,28.9-18.1
		c-0.2,0.7-0.4,1.4-0.6,2.1c-8.7,30.4-39.4,50.3-53.2,57.9c-7.8,4.3-14.7,9.4-20.7,15.2c-8.3,8.1-11.3,14-9.1,17.9
		c4.9,8.9,35.2,2.7,43.4,0.9c-16.8,41.9-64.6,66.3-84.6,74.9c-10.7,4.6-20.4,10.5-28.8,17.4c-21.5,17.8-30.7,36.3-27.3,55
		c4.1,22.4,25.7,44.6,64.2,66c21.9,12.2,43.3,20.6,52.2,23.9c0.7,0.3,1.3,0.5,1.9,0.7c-28,9.2-52.2,14.1-73,16.2
		c-1.2,0.1-2.5,0.2-3.7,0.3c-54.6,4.6-84.8-10.3-97.1-16.4c-3.9-1.9-6-3-7.3-2.8c-0.8,0.1-1.4,0.6-1.9,1.3c-3.1,5.1,4,26.8,6.1,33.1
		c-38.1-5.9-60.6-45.1-72.9-77.1c-2.2-5.7-4.1-11.4-5.8-17c-8.9-28.6-11.8-52.9-11.9-53.2l-0.1-1.1l-1.1,0.3
		c-22.8,7.3-20.3,46.8-19.1,57.5c0,0,0,0,0,0c-35.8-36.9-19.3-96,1.1-139.5c15.4-32.7,37.4-62.1,65.4-87.4
		c65.1-58.6,53.2-95.5,39.6-112.8c15.3-1.6,21.5-6,28.9-24.2c3.6-8.8,11.8-16,23.9-20.9c21.8-8.9,54.3-9.1,74-0.4l2.6,1.2l-1.5-2.5
		c-0.2-0.4-22.1-34.9-89.8-48.7c5.5-3.7,12-9.3,13.9-16.2c3.1-11.5,1.7-24.1-4-34.6l-1.6,0.8c2.5,5-0.3,11-4.1,14.1
		c-3.7,2.9-8.9,4.4-15.5,4.5c-5.1,0-8.7-1.1-11-3.3c-3.9-3.9-3-10.7-0.5-15.4c3.1-5.8,8.3-10.1,14.2-14.7l0.3-0.2
		c5.5-4.2,11.1-8.6,14.7-14.6c3.3-5.6,4.9-13.8,1.1-20c-0.2-0.3-0.3-0.6-0.5-0.8l-1.4,1.1c0.1,0.2,0.3,0.4,0.4,0.6
		c0.5,1.1,0.3,2.4,0.1,3.2c-0.6,2.3-2.2,4.4-3.9,5c-2.8,1.1-6.6-0.4-8.4-3.3c-1.6-2.7-1.8-6.4-0.5-9.9c1.3-3.5,3.9-6.6,5.9-8.8
		c2-2.2,4.2-4.1,6.5-6c58.6,13,113.1,46.6,151,92.7c0.3,0.4,0.7,0.8,1,1.2c0.1,0.1,0.2,0.2,0.2,0.3c-0.1-0.1-0.2-0.1-0.3-0.2
		c-4.2-2.9-8.5-5.6-13.4-7.4c-10.3-3.8-20.2-2.4-26.5,3.8c-3.6,3.5-5.4,8.1-4.9,12.7c0.8,9,9.2,13.5,15.3,16.8
		c1.6,0.9,3.2,1.7,4.8,2.6c25.9,14.2,52,30.7,71.5,54.5C718.7,320.1,727.1,348.5,722.6,375.1z"/>
	<path class="st1" d="M581,284.8c-20.5-7.7-51-7.1-72.5,1.6c-12.6,5.1-21.2,12.7-25,21.9c-9.1,22.4-15.6,22.7-43.1,24.1
		c-7.3,0.4-16.3,0.8-27.1,1.8c-13,1.2-21,5.4-23.7,12.5c-5.4,14.3,12.1,35.5,17.2,41.3c-46.3,1.3-69.1-16.5-80.2-34.3
		c-5.8-9.2-8.5-18.3-9.7-24.9c13.4,1.2,43-0.6,62.3-35.3c1.4-2.5,3.8-4.3,6.6-4.9c4.7-1.1,9.3-2.3,13.8-3.6c2.4-0.7,4.8-1.3,7.1-1.9
		c2.9-0.8,5.8-1.5,8.7-2.4c9.7-3,18.1-9.6,23.2-18.2l1.3-2.3l-2.4,0.9c-3.2,1.3-6.6,2.6-10.1,2.9c-3.7,0.4-7.2-0.5-9.5-2.4
		c-2.6-2.2-3.6-6-2.3-8.6c0.8-1.7,2.6-3.1,4.9-3.8c2.1-0.7,4.2-0.8,6.8-0.9c5.7-0.2,11.5-0.3,17.2-0.3c2.1,0,4.1,0.3,6.2,0.5
		c2.4,0.3,4.9,0.6,7.4,0.5c11.3-0.5,21.9-3.2,30.6-7.8c1-0.5,2.3-1.2,3.7-2.1c25.7,5,44.8,13.1,58.6,21.1
		C568.2,270.2,577.4,280.2,581,284.8z"/>
</g>
<g id="Sombra_E_Luzes">
	<path class="st1" d="M508.2,208.1c0.1,2.9,0.7,5.4,0.3,8.2c-0.2,1.2-0.6,2.5-0.9,3.6c-0.1,0.2-0.8,0.7-0.9,1c0,0,0,0.1,0,0.1
		c-0.1,0.2-0.1,0.5-0.2,0.7c-1.7,5.4-6.7,10.1-11.2,13.4c-0.2,0.1-0.3,0.2-0.5,0.3c-0.3,0.2-0.6,0.4-0.9,0.7
		c-0.9,0.6-1.7,1.2-2.6,1.7c-0.3,0.2-0.7,0.4-1,0.6c-0.1,0-0.1,0.1-0.2,0.1c-0.3,0.2-0.6,0.4-0.9,0.5c0,0-0.1,0-0.1,0.1
		c-0.4,0.2,3.2,1.3,3,1.8c-3,11.1-23.1,6-34.1,6.5c-2.3,0.1-4.7-0.2-7.1-0.5c-2.1-0.3-4.2-0.5-6.4-0.5c-5.7,0-11.5,0.1-17.2,0.3
		c-2.1,0.1-4.8,0.2-7.3,1c-2.8,0.9-4.9,2.6-6,4.8c-1.7,3.4,2.1,8.4,5.4,11.2c2.7,2.3,3.9,2.3,8.2,1.8c2.8-0.3,6.5-1.8,9.1-2.7
		c-4.9,7.1-13.4,14-21.7,16.6c-2.8,0.9-5.8,1.7-8.7,2.4c-2.4,0.6-4.8,1.3-7.2,2c-4.5,1.3-9.1,2.5-13.7,3.6c-3.3,0.8-6.1,2.9-7.7,5.9
		c-19.5,35.4-49.8,35.9-62,34.5c-3.3-0.4-6.6,0.3-9.6,2.1c-3.6,2.1-6.4,2.5-8.2,1.5c-1.2-0.7-1.9-2-2.4-3.5c-0.2-0.5-0.3-1-0.4-1.5
		c-0.1-0.3-0.1-0.6-0.1-0.9c-0.1-0.5-0.1-1-0.2-1.4c11.5-1.6,36.2-6.9,54.1-24.2c2.4-2.4,4.4-5.1,6.2-8c3.2-5.5,9.9-15.8,17.2-18.4
		c0,0-10.9,20.2,2.7,11.9c13.6-8.3,14.7-46.8,48.2-47.7c32.8-0.9,40.9,4.6,51-3.7c2.4-2,4.3-5,1-7.2c-2.4-1.7-5.6-2.3-8.4-2.7
		c-0.6-0.1-1.4,0-0.9-0.8c0.5-0.9,2.8-1.2,3.7-1.4c2.9-0.6,5.9-0.8,8.8-0.8c5.9-0.1,12,0.4,17.7-1.4c0.7-0.2,1.4-0.5,2.1-0.8
		c4.7-2.1,8.4-6.2,10.2-11C508.2,207.8,508.2,207.9,508.2,208.1z"/>
	<path class="st7" d="M335,162.8c-11.8,17.4-27.6-15.6-27.6-15.6c-9.8,6.5-4.9,49-3.8,57.6c0.1,0.9,0.3,1.7,0.5,2.6
		c1.7,7.5-6.7,1.7-6.7,1.7c-1.1,3.4,1.3,6.8,3.3,8.9c1.6,1.7,3.4,3.5,4.6,5.5c0.9,1.6,1.7,3.4,2.6,5c1.1,2.1,2,4.2,2.7,6.4
		c0.3,1.1,0.6,2.2,0.9,3.4c0.1,0.6,0.8,2.6,0.5,3.2c1.8-3.4,2.1-7.6,0.8-11.3c1.6,0.8,2.7,2.3,3.4,3.9s1,3.4,1.2,5.1
		c0.2,2.3,0.3,4.6,0.1,6.9c-0.5,8.1-3.9,14.7-6.8,22c-1.5,3.7-4.4,7.2-6.7,10.4c-1.9,2.5-3.8,4.9-5.8,7.3c-0.7,0.8-1.5,1.6-2.2,2.4
		c-2.2,2.3-8.5,9.6-4.7,15.7c4.5,7.3,3.4,15.1,3.4,15.1c-0.5-3.3-2.6-6.4-5.8-8.2c-2.6-1.5-4.3-3.9-5.1-7.2
		c-1.4-5.9,1-12.3,6.1-16.2c11.7-9,17.8-20.4,17.7-33c-0.1-15.4-8.9-27.6-14.4-31.8c-7.1-5.3-8.8-16.6-9.1-23.4
		c2.2,2.4,5.8,4.3,8.2,3.7c4.2-1,6.4-5.5,6.5-9.3c0.1-2.9-0.6-5.8-1.3-8.5c-0.2-0.8-0.4-1.7-0.6-2.5c-1.3-5.9-1.5-12.3-0.5-19.1
		c2-13.9,8.7-27.4,18.6-37.5c-2.4,7.2-2.3,15.3,0.5,22.4c1.4,3.5,3.3,5.6,5.8,6.1c3.1,0.7,6-1.5,7.3-3.7c1.4-2.4,1.6-5.3,1.8-7.8
		c0.3-5.8,0.1-11.7,0-17.4c-0.2-5.1-0.3-10.5-0.1-15.7c0.5-13.2,3.5-23.2,9.1-30.7c-9,14.6-3.4,53.3-0.8,68.4
		C339.1,152.8,338,158.3,335,162.8z"/>
	<path class="st2" d="M376.4,142.5c-4.3-0.8-6.8-3.2-8.1-6.6c0.1,0.2,0.2,0.3,0.3,0.5C370.4,139.4,373.2,141.4,376.4,142.5z"/>
	<path class="st1" d="M376.4,142.5c-5.5-1.4-8.3-4.9-9.2-9.4c0.3,1,0.6,1.9,1.1,2.8c0.1,0.2,0.2,0.3,0.3,0.5
		C370.4,139.4,373.2,141.4,376.4,142.5z"/>
	<path class="st0" d="M385.9,85.8c-0.4,0.3-1,1.1-2.3,3c-0.9,1.3-2.7,3.9-4.8,7.2c-2.7,4.2-4.6,8.8-6.3,13.1
		c-0.4,1.1-0.9,2.3-1.5,3.6c-1,2.3-2,4.7-2.8,7.2c-0.5,1.6-1,3.2-1.3,4.9c2-16.5,15.4-38.9,16-44.9c0.9-9.1-12.7,2.7-12.7,2.7
		c9.1-14.6,9.1-58.2,9.1-58.2l0.2,0l7.7,43.4l1.2-2.1c4.3-7.2,12.7-11.8,21-12C397.9,61,389.5,72.7,385.9,85.8z"/>
	<path class="st1" d="M415.1,111.7c-0.2,14.3-11.6,29.6-27.5,31.6c0.8-0.1,1.6-0.3,2.3-0.5c8.7-2.3,16.2-8.1,20.7-15.8
		C413.3,122.2,414.8,117,415.1,111.7z"/>
	<path class="st7" d="M423.4,133c1.5,1.2,3.4,2.2,5,3.2c-0.1-0.1-6.9,6.2-7.8,6.8c-3.3,2.4-7.7,3.9-11.5,5.2
		c-7.9,2.5-16.3,3.4-24.5,2.4c-4.6-0.6-9.3-1.8-12.7-5c-4.7-4.4-5.7-11.4-6.5-17.8c4.7,7.3,13.1,12.1,21.8,12.3
		c9.6,0.2,18.7-5,23.4-13.2c2.7-4.7,4.2-9.9,4.5-15.2c0.2-3.3-0.1-6.6-0.9-9.8c0.5-1.4,0.9-2.8,1.2-4.1c0,0,0,0,0-0.1
		c3.1-9.9,6.7-18.1,11.1-24.8c1.9-3,4-5.8,6.3-8.3c4.7-5.3,16.5-16.7,31.2-18c0,0,0,0,0,0c-9.5,2.7-16.1,12.9-20.8,20.8
		c-6.7,11.3-11.4,23.7-16.8,35.7c5.4-2.5,12.1-1.8,16.8,1.8c-5-1-10.4,0.2-14.5,3.1c-2,1.4-3.6,3.2-4.8,5.3c-1.3,2.2-2,4.9-2.8,7.3
		c-0.7,2.1-1.3,4.3-1.1,6.6C420.2,129.9,421.6,131.6,423.4,133z"/>
	<path class="st1" d="M516,66.8c-2.5,2.9-3.7,6.1-3.5,9.1c0.2,2.7,1.9,5.3,4.5,6.9c1.4,0.9,3,1.4,4.5,1.4c1,0.1,2.1-0.1,3.1-0.4
		c0.2-0.1,0.4-0.1,0.6-0.2l0.3-0.1l0.1-0.3c1.4-3.3,1.5-7.1,0.3-10.5c3.8,2.3,6.5,6.8,6.8,11.7c0.3,5.3-2.1,10.9-6.3,15
		c-2.7,2.6-5.9,4.2-9.2,5.8c-2.5,1.2-5.1,2.5-7.4,4.2c-1.2,0.9-2.3,1.7-3.5,2.5c-5,3.6-9.1,7.8-13.3,12.4c-2.2,2.4-5,5.3-6.4,9.1
		c-1.5,4-1.9,6.9,0,10c2.2,3.7,6.3,6,10,4.5c2-0.8,4.6-2.5,5.4-5c0,0,0-0.5,0-0.5c0.3,2.7-0.3,6.3-2,8.4c-4.5,5.5-13.8,3-19.4,1.1
		c-3.1-1-6.1-2.5-7.8-5.4c-3.8-6.7,1.4-15.4,5.1-20.9c3-4.5,6.2-8.9,10.1-12.7c3.8-3.7,8.3-6.8,13-9.4c2-1.2,4.1-2.3,5.9-3.8
		c2.1-1.9,4.1-4.9,4-7.8c-0.1-2.7-2.1-4.9-4-6.7c-0.7-0.6-1.4-1.3-2.4-1.3c-0.9,0-1.8,0.6-2.2,1.4c-0.4,0.8-0.3,1.8,0,2.7
		c0.6,1.7,2.7,3.5,4.6,3.1c-2.8,1.8-6.8,1-9.1-1.2c-2.4-2.3-3.3-5.9-2.7-9.2c1.1-6.5,6.5-10.7,11.4-14.5c5.1-4,10.3-8.3,14.6-13.2
		c3.5-3.9,6.3-8.5,8.6-13.2c4-8.1,6.4-17,7.5-26c0.5-4,0.9-8.2,0.7-12.2c3.7,9.6,4.5,20.3,2.3,30.4c-2.5,11-8.6,21.2-17.2,28.5
		c-0.6,0.5-1.3,1.1-1.9,1.6C519.4,63.6,517.6,65.1,516,66.8z"/>
	<path class="st0" d="M552.2,260c-20.5-7.2-52-10.2-72.8-1.8c-12.6,5.1-21.2,12.7-25,21.9c-9.1,22.4-15.6,22.7-43.1,24.1
		c-7.3,0.4-16.3,0.8-27.1,1.8c-13,1.2-18.6,7.9-21.3,15c-5.4,14.3,8.5,36.1,13.6,41.9c-21.3,0.6-37.6-3.1-49.9-9.2
		c-5.8-9.2-8.5-18.3-9.7-24.9c13.4,1.2,43-0.6,62.3-35.3c1.4-2.5,3.8-4.3,6.6-4.9c4.7-1.1,9.3-2.3,13.8-3.6c2.4-0.7,4.8-1.3,7.1-1.9
		c2.9-0.8,5.8-1.5,8.7-2.4c9.7-3,18.1-9.6,23.2-18.2l1.3-2.3l-2.4,0.9c-3.2,1.3-6.6,2.6-10.1,2.9c-3.7,0.4-7.2-0.5-9.5-2.4
		c-2.6-2.2-3.6-6-2.3-8.6c0.8-1.7,2.6-3.1,4.9-3.8c2.1-0.7,4.2-0.8,6.8-0.9c5.7-0.2,11.5-0.3,17.2-0.3c2.1,0,4.1,0.3,6.2,0.5
		c2.4,0.3,4.9,0.6,7.4,0.5c11.3-0.5,21.9-3.2,30.6-7.8c1-0.5,2.9-2.1,4.3-3C518.7,243.2,538.3,251.9,552.2,260z"/>
	<path class="st0" d="M654.1,215.3l0,0.2l0,0.1c-3.6-3-7.3-5.8-11.5-7.7c-8.8-4-17.3-2.5-22.7,4c-3.1,3.6-4.6,8.5-4.2,13.3
		c0.7,9.4,7.9,14.1,13.1,17.5c1.4,0.9,2.7,1.8,4.1,2.7c-10.8-5.6-21.3-12.2-31.3-19.7c-4.6-3.5-9.4-7.5-11.3-13.8
		c-2.1-7,0.4-15.2,5.1-19.9c4.7-4.7,11.1-6.3,17.2-5.5c6,0.8,11.8,3.8,17.1,7.3c8.6,5.7,16.7,12,23.6,20.3
		C653.5,214.5,653.8,214.9,654.1,215.3z"/>
	<path class="st0" d="M384.8,85.5c-0.6,1.3-1.2,2.5-1.9,3.7c-1.6,2.8-3.7,5.1-5.3,7.8c-3.4,5.5-6.4,11.2-8.8,17.2
		c-3.9,10.2-6,24.2,7.1,28.2c4,1.2,8.1,1.6,12.2,1.1c9.1-1.2,16.9-7,21.9-14.4c2.4-3.6,4.2-7.5,5.3-11.7c1.3-5.2-0.3-11.3-0.7-16.5
		c-4.3,5.4-10.8,9-17.6,9.7c-2.9,0.3-6.1,0-8-2.1c-2.8-3-2.4-8.4-2.4-12.1c0-5.2,0-10.5,0-15.7c0,1.3-1,3-1.4,4.1
		C385,85.1,384.9,85.3,384.8,85.5z"/>
	<path class="st0" d="M721.8,375.2c0.1,1.5,0,3-0.1,4.6c-9.3-21.4-27.3-38-50.6-42.5c-7.1-1.4-17.4-2-25.8,3
		c-6.6,3.9-11.8,11.1-14.5,20.3c-4,13.6-2,28.4,5.5,39.6c7.9,11.8,21.8,18.8,35.3,17.9c11.5-0.8,23-8.3,28.9-18.1
		c-0.2,0.7-0.4,1.4-0.6,2.1c-0.3,0.4-0.5,0.9-0.8,1.3c-8,13.1-23.1,21.2-38.4,21.7c-15.3,0.5-30.5-6.3-41.2-17.2
		c-3.8-3.9-7.1-8.3-9.8-13.1c-2.7-4.9-3.5-8.9-3.7-14.4c-0.4-11.1,3.2-22.2,9.8-31.1c7.8-10.7,19.7-18.2,32.5-21.5
		c14.7-3.7,30.3-2.3,43.7,4.5C707.9,340.3,721.1,356.9,721.8,375.2z"/>
	<path class="st0" d="M617,492.9c4.9,8.9,35.2,2.7,43.4,0.9c-16.8,41.9-64.6,66.3-84.6,74.9c-10.7,4.6-20.4,10.5-28.8,17.4
		c-21.5,17.8-30.7,36.3-27.3,55c4.1,22.4,25.7,44.6,64.2,66c1.9,0.9,3.7,2,5.5,3c15.4,8.4,31.8,15.4,48.4,21.2
		c-15.3,2.7-30.8-0.5-45.9-3c-20.6-3.4-41.2-6.8-61.2-12.4c-19.2-5.4-43.4-12.7-58.3-26.6c-21.1-19.9-36.7-47.1-31.9-76.9
		c4.3-26.8,22.4-49.6,41.6-67.8c21.6-20.6,46.7-37.5,72.6-52.3c19.7-11.3,40.1-21.6,61.1-30.4c56.4-23.7,84-60.1,84-60.1
		c-8.7,30.4-39.4,50.3-53.2,57.9c-7.8,4.3-14.7,9.4-20.7,15.2C617.8,483.1,614.8,488.9,617,492.9z"/>
	<path class="st7" d="M561.7,747.7l-0.2,0.6c-54.6,4.6-84.8-10.3-97.1-16.4c-3.9-1.9-6-3-7.3-2.8c-0.8,0.1-1.4,0.6-1.9,1.3
		c-3.1,5.1,4,26.8,6.1,33.1c-38.1-5.9-60.6-45.1-72.9-77.1c-2.1-5.6-4.1-11.2-5.8-16.9c1.1,3,3,5.9,4.3,8.9c1.5,3.4,3.1,6.7,4.8,10
		c3.4,6.6,7.3,12.9,11.7,18.9c8.7,12,19.1,22.7,30.9,31.7c1.8,1.3,3.5,2.6,5.3,3.9c1.7,1.2,3.9-0.5,3.1-2.4c0-0.1-0.1-0.2-0.1-0.3
		c-1.1-2.4-2.1-4.8-3.1-7.2c-2.1-5-4-10-5.7-15.1c-1.6-4.9-3-9.9-4-15c-0.5-2.5-0.9-5.1-1.2-7.7c-0.1-1.2,0.3-5.8-0.7-6.6
		c8.1,6.7,16.5,13,25.3,18.8C485.6,729,522.8,744.2,561.7,747.7z"/>
	<path class="st7" d="M543.1,316.4c5.5,95.5-56.4,103.7-146.5,182.9c-89.4,78.6-46.9,172.1-46.3,173.6c-35.8-36.9-19.3-96,1.1-139.5
		c15.4-32.7,37.4-62.1,65.4-87.4c65.1-58.6,53.2-95.5,39.6-112.8c15.3-1.6,21.5-6,28.9-24.2c3.6-8.8,11.8-16,23.9-20.9
		c21.8-8.9,54.3-9.1,74-0.4l2.6,1.2l-1.5-2.5c-0.2-0.4-22.1-34.9-89.8-48.7c5.5-3.7,12-9.3,13.9-16.2c3.1-11.5,1.7-24.1-4-34.6
		l-1.6,0.8c2.5,5-0.3,11-4.1,14.1c-3.7,2.9-8.9,4.4-15.5,4.5c-5.1,0-8.7-1.1-11-3.3c-3.9-3.9-3-10.7-0.5-15.4
		c3.1-5.8,8.3-10.1,14.2-14.7l0.3-0.2c5.5-4.2,11.1-8.6,14.7-14.6c3.3-5.6,4.9-13.8,1.1-20c-0.2-0.3-0.3-0.6-0.5-0.8l-1.4,1.1
		c0.1,0.2,0.3,0.4,0.4,0.6c0.5,1.1,0.3,2.4,0.1,3.2c-0.6,2.3-2.2,4.4-3.9,5c-2.8,1.1-6.6-0.4-8.4-3.3c-1.6-2.7-1.8-6.4-0.5-9.9
		c1.3-3.5,3.9-6.6,5.9-8.8c2-2.2,4.2-4.1,6.5-6c-3.8,4.5,3.8,8.2,12.9,10c9.1,1.8,2.7,40,2.7,40c16.4,9.1,14.6,65.5,14.6,65.5
		c68.6,5.4,92.4,78,92.8,79.2C580.4,293.7,543.1,316.4,543.1,316.4z"/>
</g>
<g id="traçado__x28_mudado_x29_" class="st3">
	<g class="st8">
		<path d="M648.4,334.1c-8.2-4.4-15-8.7-15.8-16.8c-0.4-4.5,1.3-9,4.8-12.4c6.4-6.2,16.5-7.6,27-3.7c7.5,2.8,14,7.6,20.3,12.3
			l5.7,4.2l-4.3-5.6c-21.2-27.6-47.1-51.2-77.2-70.2c-29.3-18.6-61-31.8-94.2-39.4c1.9-1.5,3.9-2.9,6-4.4c1.3-0.9,2.6-1.8,3.9-2.8
			c2.4-1.8,5.2-3.2,7.9-4.5c3.7-1.8,7.5-3.7,10.7-6.8c5.1-5,7.9-11.7,7.6-18.1c-0.4-7.1-5-13.6-11.2-15.8l-2.6-0.9l1.4,2.4
			c2.1,3.6,2.5,8.1,1,11.9c-2.1,0.7-4.7,0.4-6.9-0.9c-2.3-1.4-3.8-3.7-4-6.1c-0.3-3.7,2-6.9,3.4-8.5c1.6-1.8,3.5-3.4,5.4-4.9
			c0.7-0.6,1.4-1.2,2.1-1.8c9.8-8.4,16.7-19.9,19.5-32.4c2.8-12.6,1.4-25.9-3.9-37.7l-1.3-2.8l-0.6,3c-2.1,10.4-4.2,21.2-8.8,30.9
			c-5,10.8-12.5,18.9-21.1,22.9c-3.9,1.8-8.1,2.8-12.3,3.9c-3.1,0.8-6.3,1.6-9.4,2.7c-15.1,5.4-27.1,19-30.6,34.6
			c-0.1,0.6-0.3,1.3-0.4,1.9c-0.5,2.4-0.9,4.6-2,6.6c-1.2,2.2-3.6,4.4-6.2,4.1c-3.8-0.4-5.7-5.3-6.3-7.4c-2.7-9.3-1.8-19.5,2.6-28.2
			c4.3-8.6,12-15.5,21-18.9l4-1.5l-4.2-0.4c-19.9-2.1-36.1,13.5-42.2,20.3c-9,10.1-15.6,23.4-20.9,41.9l-0.2,0c0,0.1,0,0.2,0.1,0.3
			c0,0,0,0.1,0,0.1l-0.3,1.2c-1.2,4.4-2.5,8.9-5,12.7c-2.3,3.4-6.7,7-11.8,6.4c-6.9-0.8-10.8-9-11.7-16.8
			c-2.4-22.4,9.8-45.6,29.6-56.3l2.8-1.5l-3.2-0.4c-10.1-1.2-20.9,3.6-27,11.8l-9.4-52.8l-2,0.2c0.7,16.8-6.1,33.9-18.1,45.6
			c-3.3,3.2-7,6.1-10.6,8.9c-5.6,4.4-11.3,8.9-15.7,14.7c-6.4,8.6-9.8,20-10.4,34.9c-0.2,5.8,0,11.7,0.1,17.3c0.2,6.2,0.4,12.7,0,19
			c-0.1,2.6-0.4,5.4-1.7,7.6c-1.1,2-3.5,3.7-5.8,3.2c-2-0.4-3.6-2.3-4.9-5.5c-3.5-8.8-3-19.1,1.3-27.5l2.4-4.7l-3.9,3.5
			c-13.1,11.7-22,28.3-24.5,45.7c-1.1,7.7-0.9,15,0.6,21.7c0.2,1,0.5,1.9,0.7,2.9c0.8,3,1.5,5.9,1.3,8.8c-0.2,3.5-2.2,7.5-5.7,8.4
			c-2,0.5-5.8-1.6-7.8-4.3c-0.2-0.3-0.6-0.9-0.9-1.5c0-1.4,0-2.3,0.1-2.3l0.3-4.4l-2.2,3.9c-0.5,0.9-0.6,2-0.2,3.2
			c0,6.6,1,23.2,11,30.6c6.2,4.6,14.9,18,15,33.3c0.1,13.2-6.4,25.2-18.7,34.7c-6.2,4.8-9.1,12.6-7.4,19.9c1,4.2,3.2,7.3,6.5,9.2
			c3.4,1.9,5.5,5.4,5.5,9c0,6.6,1.5,10.8,4.6,12.6c1,0.6,2.2,0.9,3.4,0.9c2.2,0,4.7-0.8,7.6-2.5c2.8-1.6,5.9-2.3,9-2
			c1.7,9.3,6.8,26.8,21.7,41.6c17.1,17.1,42,25.7,74,25.7c2.5,0,5-0.1,7.5-0.2l2.2-0.1l-1.5-1.6c-0.3-0.3-26.3-28.2-20-44.9
			c2.7-7,10.9-11.2,24.4-12.4c11.9-1.1,21.8-1.5,29.7-1.9c5.7-0.3,10.7-0.5,15-0.9c14.9,18,29.2,57.7-42.4,122.2
			c-31,27.9-55.3,60.4-72.3,96.6c-23.1,49.2-41.6,116.5,1.2,157.7l2.1,2l-0.4-2.9c-0.1-0.5-7.3-53.7,18.2-63.5
			c0.9,6.9,6,41.3,19.4,76.4c8.8,23,19.3,41.7,31.3,55.8c15.1,17.7,32.6,27.9,52,30.5l1.6,0.2l-0.5-1.5c-4.3-12.3-9.9-32.2-7.4-36.2
			c0.2-0.4,0.4-0.4,0.6-0.5c0.8-0.1,3.6,1.3,6.9,2.9c19.3,9.5,77.8,38.5,195.3-0.9l2.8-0.9l-2.8-1c-1.2-0.4-120.9-41.6-131.5-99
			c-3.6-19.8,6.2-39.5,29.3-58.6c9.1-7.5,19.6-13.8,31.1-18.8c22.5-9.7,76.7-37.4,94.7-85.3l0.7-1.8l-1.8,0.4
			c-11.7,2.8-43,8.3-47.3,0.4c-1.8-3.3,1.5-9.3,9.7-17.3c6.4-6.2,13.9-11.7,22.3-16.4c16.9-9.3,56.8-35.4,61.6-75.7l-2-0.4
			c-3.9,13.5-18.9,25.3-33.5,26.4c-14.1,1-28.6-6.4-37-18.8c-7.9-11.7-10-27.4-5.8-41.8c2.8-9.6,8.2-17.1,15-21.1
			c8.7-5.1,19.5-4.5,27-3.1c25.1,4.8,47.3,24.4,55.2,48.6l1.1,3.2l0.9-3.3c8.5-32.2-0.4-67.5-24.6-97
			C710,369.4,678.7,350.4,648.4,334.1z M299.4,434.7c-4,2.2-7,2.8-9,1.6c-2.9-1.7-3.6-6.9-3.6-10.9c0-4.3-2.5-8.5-6.5-10.8
			c-2.8-1.6-4.7-4.3-5.6-7.9c-1.6-6.5,1.1-13.5,6.7-17.8c12.8-9.9,19.5-22.4,19.4-36.3c-0.1-16.9-9.8-30.4-15.8-34.9
			c-7.8-5.8-9.6-18.3-10.1-25.7c2.4,2.6,6.3,4.8,9,4.1c4.7-1.1,7-6.1,7.2-10.2c0.2-3.2-0.6-6.4-1.4-9.4c-0.2-0.9-0.5-1.9-0.7-2.8
			c-1.4-6.4-1.6-13.5-0.5-21c2.2-15.3,9.5-30.1,20.4-41.2c-2.7,7.9-2.5,16.8,0.5,24.6c1.5,3.9,3.7,6.2,6.3,6.7
			c3.4,0.7,6.5-1.6,8-4.1c1.5-2.6,1.8-5.8,2-8.5c0.3-6.4,0.2-12.9,0-19.1c-0.2-5.6-0.3-11.5-0.1-17.2c0.6-14.5,3.8-25.5,10-33.8
			c4.2-5.6,9.8-10,15.3-14.3c3.6-2.8,7.4-5.8,10.7-9.1c10.2-10,16.7-23.6,18.3-37.7l8.6,48.7l1.4-2.3c4.7-7.9,13.9-13,23.1-13.1
			c-12.7,7.9-21.9,20.8-25.9,35.2c-0.4,0.4-1,1.2-2.5,3.3c-1,1.4-3,4.3-5.3,7.9c-3,4.6-5.1,9.6-6.9,14.4c-0.5,1.3-1,2.6-1.6,3.9
			c-3.4,8-7.6,18-2.7,26.2c3.4,5.7,10,7.9,16.4,7.9c2.5,0,4.9-0.3,7.2-0.9c9.5-2.5,17.8-8.9,22.7-17.4c4.8-8.3,6.2-18.3,3.9-27.5
			c5.2-18.1,11.6-31.1,20.4-40.9c5.4-6.1,19.2-19.4,36.2-19.8c-7.7,3.9-14.2,10.3-18.1,18.1c-4.6,9.1-5.5,19.9-2.7,29.6
			c1.5,5.2,4.4,8.4,8,8.8c3.6,0.4,6.7-2.3,8.2-5.1c1.2-2.2,1.7-4.7,2.2-7.1c0.1-0.6,0.3-1.2,0.4-1.8c3.4-14.9,14.9-28,29.3-33.1
			c3-1.1,6.1-1.8,9.2-2.6c4.2-1,8.6-2.1,12.6-4c9.1-4.2,16.9-12.6,22.1-23.8c4.1-9,6.3-18.7,8.3-28.2c4.1,10.6,5,22.3,2.5,33.4
			c-2.7,12.1-9.4,23.3-18.9,31.3c-0.7,0.6-1.4,1.2-2.1,1.7c-1.9,1.6-3.9,3.2-5.6,5.1c-2.7,3.2-4.1,6.7-3.9,10c0.2,3,2.1,5.9,5,7.6
			c2.9,1.8,6.3,2.1,9.1,0.9l0.4-0.2l0.2-0.4c1.6-3.6,1.6-7.8,0.3-11.5c4.2,2.6,7.1,7.5,7.5,12.8c0.3,5.8-2.3,12-6.9,16.5
			c-2.9,2.9-6.4,4.6-10.2,6.4c-2.7,1.4-5.6,2.8-8.2,4.7c-1.3,0.9-2.6,1.9-3.8,2.8c-5.5,4-10.7,7.7-15.4,12.8
			c-2.4,2.6-5.4,6.1-6.9,10.4c-1.6,4.5-1.4,9.2,0.7,12.6c2.5,4.1,7.6,6.1,11.6,4.5c2.2-0.9,4.3-3.3,5.3-6.1c1.1,5.2-0.5,11-3,15.3
			c-3.8,6.3-9.8,11-15.7,15.6l-0.3,0.3c-6.7,5.2-12.5,10.1-16.1,16.8c-3.1,5.7-4.1,14.2,0.9,19.2c2.9,2.9,7.2,4.3,13.4,4.3
			c0,0,0.1,0,0.1,0c7.7,0,13.9-1.8,18.3-5.4c3-2.4,5.5-6.4,6.1-10.6c3.5,9.6,4,20.3,1.3,30.2c-2.8,10.3-16.6,18.3-20.7,20.4
			c-9.3,4.9-20.7,7.8-32.8,8.3c-2.6,0.1-5.1-0.2-7.8-0.5c-2.3-0.3-4.6-0.6-7-0.6c-6.3,0-12.7,0.1-18.9,0.3c-2.4,0.1-5.3,0.2-8,1.1
			c-3.1,1-5.4,2.8-6.6,5.2c-1.9,3.8-0.6,8.9,3,11.9c3,2.5,7.2,3.6,11.9,3.1c3.1-0.3,6-1.2,8.8-2.3c-5.4,7.8-13.5,13.7-22.7,16.6
			c-3.1,1-6.4,1.8-9.5,2.6c-2.6,0.7-5.3,1.4-7.9,2.2c-4.9,1.4-10,2.8-15.1,3.9c-3.6,0.8-6.7,3.2-8.5,6.4
			c-21.4,38.6-54.8,39.2-68.1,37.6C306.4,432,302.8,432.8,299.4,434.7z M447.2,438.6c-8,0.4-17.9,0.9-29.8,1.9
			c-14.3,1.3-23.1,5.9-26,13.7c-5.9,15.7,13.3,39,18.9,45.4c-77.1,2.2-94.8-43.9-98.9-65c14.7,1.3,47.3-0.7,68.4-38.8
			c1.5-2.7,4.2-4.7,7.2-5.4c5.1-1.2,10.2-2.5,15.2-4c2.6-0.8,5.3-1.5,7.8-2.1c3.2-0.8,6.4-1.7,9.6-2.7c10.6-3.3,19.9-10.6,25.4-20
			l1.5-2.5l-2.7,1c-3.6,1.4-7.3,2.8-11.1,3.2c-4.1,0.4-7.9-0.5-10.4-2.7c-2.8-2.4-3.9-6.5-2.5-9.4c0.9-1.9,2.9-3.4,5.4-4.2
			c2.3-0.7,4.6-0.9,7.5-1c6.2-0.2,12.6-0.3,18.8-0.3c2.3,0,4.6,0.3,6.8,0.6c2.7,0.3,5.4,0.7,8.2,0.5c12.4-0.5,24.1-3.5,33.7-8.5
			c1.1-0.6,2.5-1.4,4.1-2.3c63.2,12.4,90.2,41.3,97.3,50.3c-22.5-8.5-56-7.8-79.6,1.8c-13.8,5.6-23.3,14-27.4,24.1
			C484.6,436.7,477.4,437.1,447.2,438.6z M756.3,490.7c-9.1-23.8-30.6-42-55.6-46.8c-7.8-1.5-19.1-2.2-28.4,3.3
			c-7.3,4.3-12.9,12.2-15.9,22.3c-4.4,15-2.2,31.3,6,43.5c8.7,13,23.9,20.7,38.8,19.6c12.7-0.9,25.3-9.1,31.8-19.9
			c-8.6,34.7-43.6,57.4-59.1,65.9c-8.6,4.7-16.2,10.3-22.7,16.7c-9.1,8.9-12.4,15.3-10,19.7c5.4,9.7,38.7,3,47.7,1
			c-18.4,46-71,72.9-92.9,82.4c-11.8,5.1-22.4,11.5-31.6,19.1c-23.7,19.6-33.8,39.9-30,60.5c4.5,24.6,28.3,49,70.6,72.6
			c25.9,14.4,51.2,24,59.4,27c-114.8,37.8-172.1,9.5-191,0.1c-4.3-2.1-6.6-3.3-8.1-3.1c-0.9,0.1-1.6,0.6-2.1,1.4
			c-3.4,5.6,4.4,29.5,6.7,36.4c-41.9-6.5-66.7-49.5-80.1-84.7c-14.8-38.8-19.4-76.8-19.5-77.2l-0.1-1.2l-1.2,0.4
			c-25.1,8.1-22.3,51.4-21,63.2c-39.4-40.5-21.2-105.6,1.2-153.4c16.9-36,41.1-68.3,71.9-96c71.5-64.4,58.5-105,43.5-124
			c16.8-1.8,23.6-6.5,31.7-26.6c3.9-9.6,13-17.6,26.3-23c24-9.7,59.7-10,81.3-0.5l2.9,1.3l-1.7-2.7c-0.2-0.4-24.3-38.4-98.6-53.6
			c6-4,13.2-10.2,15.2-17.8c3.4-12.7,1.8-26.5-4.4-38l-1.8,0.9c2.7,5.5-0.3,12.1-4.5,15.5c-4,3.2-9.8,4.9-17,4.9
			c-5.6,0-9.6-1.2-12.1-3.7c-4.3-4.3-3.3-11.8-0.6-16.9c3.4-6.4,9.1-11.1,15.6-16.1l0.3-0.3c6-4.7,12.2-9.5,16.2-16.1
			c3.7-6.1,5.4-15.1,1.2-22c-0.2-0.3-0.4-0.6-0.6-0.9l-1.6,1.2c0.2,0.2,0.3,0.4,0.4,0.7c0.6,1.2,0.3,2.6,0.1,3.5
			c-0.6,2.5-2.5,4.8-4.3,5.5c-3.1,1.2-7.3-0.4-9.2-3.7c-1.8-2.9-2-7-0.6-10.9c1.4-3.9,4.2-7.2,6.5-9.7c2.2-2.4,4.6-4.5,7.1-6.5
			c65.1,14.4,125.6,52,167.4,103.5c-4.7-3.3-9.6-6.3-15-8.3c-11.3-4.2-22.2-2.6-29.1,4.2c-3.9,3.8-5.9,8.9-5.4,14
			c0.9,9.9,10.1,14.8,16.8,18.4c30.1,16.2,61.1,35,83.9,62.8C754.3,426.6,763.3,460,756.3,490.7z"/>
		<path d="M318.4,384.8c0.5-3.3,0-5.6-1.7-6.5c-1.6-0.9-3.9-0.3-6.5,1.8c-2.3,1.9-4.6,4.8-6.6,8.2c-2,3.4-3.3,6.9-3.8,9.8
			c-0.5,3.3,0,5.6,1.7,6.5c0.5,0.3,1,0.4,1.6,0.4c1.4,0,3.1-0.8,4.9-2.2c2.3-1.9,4.6-4.8,6.6-8.2
			C316.5,391.3,317.9,387.8,318.4,384.8z M306.7,401.3c-1.8,1.5-3.4,2.1-4.2,1.6c-0.8-0.5-1.1-2.2-0.7-4.5c0.5-2.7,1.7-6,3.6-9.1
			c1.8-3.2,4-5.9,6.1-7.6c1.4-1.1,2.7-1.8,3.6-1.8c0.2,0,0.5,0,0.6,0.2c0.8,0.5,1.1,2.2,0.7,4.5c-0.5,2.7-1.7,6-3.6,9.1
			C311,396.8,308.8,399.5,306.7,401.3z"/>
		<path d="M385.9,318.4c0.2,0,0.4,0,0.6,0c5.8,0,14.5-9.9,15.4-16.4c0.5-3.3-1.2-5.6-4.4-6.1c-4.5-0.7-10.2,3.7-13.7,8.1
			c-3.3,4.2-4.5,8.1-3.4,10.8C381,316.3,382.4,318,385.9,318.4z M385.4,305.4c3.4-4.4,8.1-7.4,11.2-7.4c0.2,0,0.4,0,0.6,0
			c2.2,0.3,3.1,1.5,2.8,3.8c-0.8,6-9.4,15.2-13.8,14.6c-2.1-0.3-3.4-1-3.9-2.2C381.5,312.3,382.6,308.9,385.4,305.4z"/>
		<path d="M345,362.8c0.3,0.6,0.7,1.2,1.2,1.8c0.6,0.8,1.4,1.8,1.5,2.5l2-0.4c-1.8-9.2,2-19.2,9.3-25c5.6-4.4,12.9-6.3,19.4-8.1
			l17.3-4.6c3.8-1,6.8-1.8,9.9-4.8c6.9-6.8,11.8-14,15.7-23.3c0.8-2,1.6-3.9,2.4-5.9c2.8-6.9,5.7-14.1,10-20.2
			c6.3-8.8,15.1-13.9,23.5-13.5l0.2-2c-26-4.5-54.1,5-72.1,24.2c-2.5-6.2-0.3-14.1,5.2-18l4.7-3.3l-5.5,1.5
			c-10.6,2.9-19.5,11-23.3,21.3c-1.3,3.5-2,7.1-2.7,10.6c-0.7,3.5-1.4,7.2-2.7,10.6c-2.1,5.4-5.7,10.3-9.1,15l-1.2,1.6
			c-3.7,5.1-7.9,11.1-9.5,17.8c-0.3,1.3-0.5,2.5-0.6,3.7c-0.3,3.3,0.4,7.4,2,12.4C343.1,358.9,344,360.9,345,362.8z M342.4,344.6
			c0.1-1.1,0.3-2.3,0.6-3.4c1.5-6.3,5.5-12.1,9.2-17.1l1.2-1.6c3.5-4.8,7.2-9.8,9.4-15.5c1.3-3.5,2.1-7.3,2.8-10.9
			c0.7-3.4,1.4-7,2.6-10.3c3.1-8.3,9.7-15.1,17.8-18.6c-4,5.2-4.9,12.8-1.8,18.6l0.7,1.2l0.9-1.1c15.8-17.5,40-27.1,63.5-25.6
			c-6.4,2-12.5,6.6-17.2,13.2c-4.5,6.3-7.4,13.6-10.3,20.6c-0.8,2-1.6,3.9-2.4,5.9c-3.8,9-8.5,16-15.3,22.6c-2.7,2.6-5.3,3.3-9,4.3
			l-17.3,4.6c-6.7,1.8-14.2,3.8-20.1,8.4c-6.7,5.3-10.7,13.9-10.5,22.5c-0.2-0.3-0.3-0.5-0.4-0.7c-1-1.8-1.8-3.8-2.4-5.7
			C342.8,351.5,342.1,347.7,342.4,344.6z"/>
	</g>
</g>
<g id="Letreiro">
	<g>
		<path class="st2" d="M545,967.5c0,0-20.5-9-22.5-13s-55-130-55-130l21-16l-76,5c0,0-33,134-37,142c0,0-15-9-17-11l14-1
			c0,0-7.4-4.2-16-12s-18.5-19-26-28c0,0,50-12,42-49s-27-49-98-48l2,92l-28-2v-31c0,0-8,7-10,11s-46,3-46,3s-3-51,3-51s36-15,58,12
			l3-36c0,0-90,6-117,1c0,0,14.5,7.6,20,18c1.3,2.5,0.8,5.3,1,8c0,0,2,107-2,118c0,0-67.1-58.5-69-61.2c0,0,51-14.8,46-57.8
			c-4.2-36.5-12.8-44.9-35.6-57.1c-8.3-4.4-17-8-26-10.7C56.8,757.7,27.6,748.5,21,744c0,0,12,127,9,140c0,0-24-3.1-32-6
			c0,0,24,11,31,11c0,0-1.5,38.5-13.5,92.5c0,0,39-2,61-6c0,0-10-10-13-11s0-73,0-73l9-1l27,45.1c2,3.3,4,6.5,6.2,9.7l59.7,87.2
			l62-4c0,0-39-27-59-57c0,0,89-1,95,1l3-1v-2c0,0,46-3,54-5l-11-7c0,0-2-1-2-2s0-50,0-50h3l30,64c0,0,71-5,87-2l-17-7l14-51l46-4
			l20,51l-20,11H545z M62.5,882.5l4-95c0,0,16-12,28,21S97.5,881.5,62.5,882.5z M266.5,961.5c0,0-9-18-9-27c0,0-2,18-29,18
			s-35,0-35,0l-2-50c0,0,24-11,57,4v-7.1l28,6.1L266.5,961.5z M307.5,885.5l-1-56c20.1-1,29.4,5.4,33.6,12.3
			c4.3,7.1,3.9,16.1-0.5,23.1C328.5,882.4,307.5,885.5,307.5,885.5z M429.5,888.2l14-54.8l20.7,54.8H429.5z"/>
		<path class="st2" d="M645.5,857.5c0,0,3-27,12-35c0,0-38-14-64-14s-77.2,21.5-78.1,79.8c-0.9,58.2,40.1,81.2,68.1,79.2l72-1
			c0,0-10-46-8-74l-66,2c0,0,46,13,45,23c0,0,2,23-2,23c-3.9,0-30.1,18.3-59.4-2.8c-0.9-0.6-1.8-1.2-2.7-1.9
			c-3.4-2.3-13.6-11-17.3-36c0,0,9.5,9.7,19.5,8.7c0,0-24-18-16-49c0,0,12-37,59-24c0,0,27,7,37,23L645.5,857.5z"/>
		<path class="st2" d="M710.5,886.5c0,0,19,4,19,49c0,0,0.1-46,18-49c0,0-6.6-1-12.8-17c0,0-4.2-12-5.2-18
			C729.5,851.5,725.5,881.5,710.5,886.5z"/>
		<path class="st2" d="M797.5,898.5c3-41-24-91-70-89s-59,42-59,42c-21,45-11,72.8-11,72.8l11-16.8c14,50,21,62,66.3,65
			c45.3,3,58.7-41,58.7-41c14-18,21-55,21-55C804.5,896.5,797.5,898.5,797.5,898.5z M738.5,944.5c-19,4-52-10-51-60s41-47,41-47
			c32,0,40,28,40,28C783.5,919.5,757.5,940.5,738.5,944.5z"/>
		<path class="st2" d="M870.5,964.5l-5-138L984.6,1042l2.9-287.5c0,0,12.5-1.4,19-9h-87.9c0,0,12.9,10,23.9,9c0,0,8,111,2,133
			c0,0-61-99-61-104l-82,1l24,9c0,0,0,163-5,170l-19.5,9.2l94.5,0.8L870.5,964.5z"/>
	</g>
</g>
</svg>
